<?xml version="1.0" encoding="utf-8"?>
<!-- Generator: Adobe Illustrator 16.0.0, SVG Export Plug-In . SVG Version: 6.00 Build 0)  -->
<!DOCTYPE svg PUBLIC "-//W3C//DTD SVG 1.1//EN" "http://www.w3.org/Graphics/SVG/1.1/DTD/svg11.dtd">
<svg version="1.1"
	 id="Layer_1" xmlns:cc="http://creativecommons.org/ns#" xmlns:rdf="http://www.w3.org/1999/02/22-rdf-syntax-ns#" xmlns:dc="http://purl.org/dc/elements/1.1/"
	 xmlns="http://www.w3.org/2000/svg" xmlns:xlink="http://www.w3.org/1999/xlink" x="0px" y="0px" width="546.854px"
	 height="550.799px" viewBox="32.573 120.594 546.854 550.799" enable-background="new 32.573 120.594 546.854 550.799"
	 xml:space="preserve">
<path d="M394.446,120.6c-4.391,0-7.829,0.263-10.464,0.79c-2.635,0.527-4.868,1.337-6.713,2.566
	c-2.413,1.537-4.146,3.771-5.133,6.515c-0.987,2.744-1.382,7.499-1.382,14.214v15.991c0,6.716-1.337,11.515-3.751,14.214
	c-2.414,2.699-6.556,3.948-12.438,3.948c-0.309,0-0.725,0.044-1.384,0c-0.657-0.044-1.228,0-1.578,0v8.291
	c0.352,0,0.921,0.044,1.578,0c0.659-0.044,1.075-0.197,1.384-0.197c5.882,0,10.021,1.468,12.438,4.146
	c2.414,2.678,3.751,7.345,3.751,14.017v15.991c0,6.541,0.395,11.208,1.382,14.017c0.987,2.81,2.72,4.935,5.133,6.515
	c1.845,1.229,4.058,2.237,6.713,2.764c2.655,0.527,6.117,0.79,10.464,0.79h2.369v-8.291h-2.566c-5.531,0-9.344-1.118-11.253-3.159
	s-2.764-6.292-2.764-12.832v-15.793c0-7.287-1.053-12.545-2.963-15.596c-1.908-3.051-5.194-5.198-10.067-6.515
	c4.872-1.361,8.159-3.662,10.067-6.712c1.91-3.051,2.963-8.112,2.963-15.398v-15.991c0-6.584,0.876-10.966,2.764-13.029
	s5.547-2.961,10.857-2.961c0.308,0,0.724-0.044,1.383,0c0.657,0.044,1.228,0,1.579,0v-8.294L394.446,120.6L394.446,120.6z
	 M534.019,120.6v8.292h2.567c5.486,0,9.124,1.074,11.056,3.159s2.961,6.292,2.961,12.832v15.991c0,7.287,1.053,12.348,2.962,15.398
	c1.909,3.051,5.195,5.352,10.068,6.712c-4.873,1.317-8.159,3.464-10.068,6.515s-2.962,8.309-2.962,15.596v15.793
	c0,6.628-0.854,10.944-2.764,13.029s-5.591,3.159-10.857,3.159c-0.308,0-0.725-0.154-1.383-0.197c-0.657-0.044-1.229,0-1.579,0
	v8.292h2.765c4.478,0,7.896-0.285,10.463-0.79c2.568-0.505,4.804-1.425,6.516-2.566c2.37-1.58,3.971-3.728,4.937-6.515
	c0.965-2.787,1.579-7.498,1.579-14.214v-15.991c0-6.672,1.116-11.295,3.554-14.017c2.436-2.722,6.708-4.146,12.635-4.146
	c0.308,0,0.724,0.154,1.382,0.197c0.658,0.044,1.229,0,1.579,0v-8.291c-0.352,0-0.921-0.043-1.579,0c-0.658,0.044-1.074,0-1.382,0
	c-5.927,0-10.199-1.424-12.635-4.146c-2.438-2.722-3.554-7.345-3.554-14.017v-15.991c-0.008-6.675-0.618-11.452-1.585-14.218
	c-0.961-2.766-2.564-4.979-4.935-6.515c-1.842-1.186-4.233-2.018-6.909-2.567c-2.681-0.548-6.077-0.79-10.465-0.79h-2.368
	L534.019,120.6z M426.821,205.093c-1.977,0-3.531,0.767-4.937,2.171c-1.404,1.405-2.172,3.158-2.172,5.133
	c0,1.887,0.723,3.487,2.172,4.935c1.448,1.449,3.048,2.172,4.937,2.172c1.975,0,3.706-0.745,5.133-2.172
	c1.426-1.426,2.166-2.999,2.166-4.933c0-2.019-0.768-3.75-2.171-5.133c-1.405-1.383-3.114-2.171-5.134-2.171L426.821,205.093z
	 M465.317,205.093c-1.976,0-3.53,0.767-4.937,2.171c-1.404,1.405-2.171,3.158-2.171,5.133c0,1.887,0.723,3.487,2.171,4.935
	c1.449,1.449,3.048,2.172,4.937,2.172c1.976,0,3.707-0.745,5.133-2.172c1.427-1.426,2.172-3.004,2.172-4.935
	c0-2.02-0.767-3.75-2.172-5.133C469.046,205.882,467.337,205.093,465.317,205.093z M503.814,205.093
	c-1.977,0-3.729,0.767-5.134,2.171c-1.404,1.405-1.975,3.158-1.975,5.133c0,1.887,0.724,3.487,2.172,4.935
	c1.448,1.449,3.048,2.172,4.937,2.172c1.976,0,3.705-0.745,5.133-2.172c1.427-1.426,2.172-3.004,2.172-4.935
	c0-2.02-0.769-3.75-2.172-5.133C507.543,205.882,505.834,205.093,503.814,205.093L503.814,205.093z M475.781,260.962
	c-23.905,69.164-81.916,102.559-123.185,111.348H352.4l-8.688,1.974l7.106-11.252c-13.522,7.414-27.048,15.01-40.272,22.309
	c15.283,0.836,25.447,1.322,45.801,2.369l-11.253-7.107l8.688-1.975c0.055-0.012,0.142,0.012,0.196,0
	c43.26-9.268,103.03-44.035,127.73-115.491l-5.923-2.172L475.781,260.962z M172.939,285.836l-1.185,0.593L34.152,365.793
	l-1.579,0.986l1.185,1.58l54.093,62.387v79.365v79.363v1.383l1.185,0.395l137.412,79.354l0.985,0.787l1.185-0.789l137.406-79.363
	l1.185-0.396v-1.381V479.702h-0.987l81.537-47.186l5.33-3.158h-6.317l-80.746-0.197v-0.395l-137.407-79.364l-1.185-0.592
	l-53.698-61.99l-0.79-0.987L172.939,285.836z M172.149,290.18l52.513,60.41l-134.64,77.584l-52.316-60.411L172.149,290.18
	L172.149,290.18z M227.032,354.342v152.805L94.57,430.739l132.467-76.396H227.032z M228.019,354.342l132.468,76.402l-132.468,76.402
	V354.342L228.019,354.342z M366.013,432.52l74.627,0.197l-128.918,74.627h-74.823l129.114-74.627V432.52L366.013,432.52z
	 M92.387,434.69l64.162,37.115v74.033L92.387,508.92v-74.229V434.69z M161.09,474.372l62.583,36.129l-0.197,0.197h0.592l1.185,0.789
	v74.033l-64.162-36.918L161.09,474.372L161.09,474.372z M362.652,481.676v27.244l-64.162,36.918v-35.141h13.622h0.593l0.395-0.197
	L362.652,481.676L362.652,481.676z M230.975,510.698h62.975V548.6l-64.162,36.918v-74.033l1.185-0.789L230.975,510.698z
	 M92.387,514.053l64.162,36.918v74.426l-64.162-37.115V514.053L92.387,514.053z M362.652,514.053v74.229l-64.162,37.115v-74.426
	L362.652,514.053L362.652,514.053L362.652,514.053z M161.09,553.735l64.162,36.918v74.229l-64.162-36.918V553.735z M293.956,553.735
	v74.229l-64.162,36.918v-74.229L293.956,553.735z"/>
</svg>
